<svg width="778" height="352" viewBox="0 0 778 352" fill="none" xmlns="http://www.w3.org/2000/svg">
<path fill-rule="evenodd" clip-rule="evenodd" d="M74.2908 179.726C74.2908 179.726 28.4172 208.197 34.5912 258.15C40.7652 308.104 91.5614 315.681 91.5614 315.681C91.5614 315.681 167.895 329.683 185.295 252.257C202.694 174.831 122.69 146.454 74.2908 179.726Z" stroke="#F9F5E3" stroke-width="68.0285" stroke-miterlimit="1.5" stroke-linecap="round" stroke-linejoin="round"/>
<path fill-rule="evenodd" clip-rule="evenodd" d="M245.977 173.145C245.977 173.145 235.418 247.579 262.752 276.029C290.086 304.48 319.652 272.682 320.21 242.001C320.768 211.319 322.232 216.709 315.091 150.032C307.951 83.3546 324.303 107.707 313.146 28.4086C304.276 -34.6314 209.579 24.8476 214.882 69.1306C217.178 88.3116 227.553 96.0146 239.51 113.788C252.648 133.317 245.977 173.145 245.977 173.145Z" fill="#F9F5E3"/>
<path fill-rule="evenodd" clip-rule="evenodd" d="M514.873 153.363C464.848 166.503 466.006 150.703 469.533 144.274C474.718 134.823 480.635 125.492 485.944 118.758C489.204 114.624 493.026 112.621 501.628 97.8877C504.703 92.6207 510.643 72.1068 509.929 60.6138C509.527 54.1348 507.681 43.1248 504.086 35.7778C488.375 3.66275 424.801 -16.8973 376.046 22.9757C316.423 71.7377 361.779 101.471 395.682 93.3097C414.229 88.8447 420.17 96.1827 421.407 106.49C422.629 116.669 409.573 129.433 409.573 129.433C409.573 129.433 324.766 209.015 363.99 251.725C403.213 294.435 525.75 265.705 555.452 241.071C573.735 225.908 571.616 209.233 570.548 197.566C568.581 176.093 552.374 143.513 514.873 153.363Z" fill="#F9F5E3" stroke="#F9F5E3" stroke-width="2" stroke-miterlimit="1.5" stroke-linecap="round" stroke-linejoin="round"/>
<path fill-rule="evenodd" clip-rule="evenodd" d="M630.518 237.671C632.791 243.3 633.543 253.593 618.31 255.907C612.117 256.848 603.221 260.338 595.017 266.415C588.723 271.076 583.206 272.503 577.39 291.022C563.992 333.681 665.809 370.941 726.36 339.423C786.91 307.905 778.508 291.601 775.765 259.699C771.963 215.462 739.209 203.678 721.583 194.787C703.957 185.896 729.974 164.697 729.974 164.697C729.974 164.697 779.483 116.664 718.12 79.0095C656.757 41.3555 549.703 71.2895 565.612 119.358C568.622 128.451 575.991 131.557 578.211 133.555C597.68 151.079 627.298 128.106 625.618 149.54C625.53 150.655 625.473 153.856 622.084 157.949C617.229 163.812 611.809 168.186 608.806 170.903C606.15 173.305 601.72 179.932 600.04 182.044C592.475 191.559 595.214 200.597 598.92 209.247C605.282 224.097 626.212 227.007 630.518 237.671Z" fill="#F9F5E3"/>
</svg>
